# xmcd
#
# Track frame offsets:
#   150
#   12910
#   25800
#   40138
#   55558
#   65703
#   78515
#   94440
#   108105
#   120733
#   134268
#   146985
#   159333
#   171580
#   184105
#   195955
#   210318
#   221368
#   235838
#   249913
#   264258
#   276993
#
# Disc length: 3865 seconds
#
# Revision: 0
# Processed by: cddbd v1.5.1PL0 Copyright (c) Steve Scherf et al.
# Submitted via: Media_Universe 3.0
#
DISCID=320f1716
DTITLE=De Chico's - Favorieten Van Toen
DYEAR=1993
DGENRE=Country
TTITLE0=Hurry Up
TTITLE1=Cigareets, Whuskee And Wild Wild Woman
TTITLE2='S avonds Als Het Kampvuur Brand
TTITLE3=Tennessee Polka
TTITLE4=Mijn Groot Geluk
TTITLE5=Tom Dooley
TTITLE6=10.000 Mijl
TTITLE7=De Oude Cowboy
TTITLE8=Cowboy Polka
TTITLE9=De Sheriff's Dochter
TTITLE10=Rinkelende Sporen
TTITLE11=Smoke, Smoke, Smoke
TTITLE12=Hey Mr. Banjo
TTITLE13=De Mexicaan En De Cowboy
TTITLE14=De Ballade Van Davy Crockett
TTITLE15=Smoky
TTITLE16=De Westen Wind
TTITLE17=Koel Water
TTITLE18=Rodeo In Tennessee
TTITLE19=Goudkoorts
TTITLE20=Let Op De Sterren In De Nacht
TTITLE21=Het Wilde Westen
EXTD=
EXTT0=
EXTT1=
EXTT2=
EXTT3=
EXTT4=
EXTT5=
EXTT6=
EXTT7=
EXTT8=
EXTT9=
EXTT10=
EXTT11=
EXTT12=
EXTT13=
EXTT14=
EXTT15=
EXTT16=
EXTT17=
EXTT18=
EXTT19=
EXTT20=
EXTT21=
PLAYORDER=
